CATALOG 0000000000000
FILE "CDDA.iso" BINARY
 TRACK 01 MODE1/2048
   INDEX 01 00:00:00
FILE "soundtrack-02-lotus-turbo-challenge-2.wav" WAVE
 TRACK 02 AUDIO
   PREGAP 00:01:00
   INDEX 01 00:00:00
FILE "soundtrack-03-turrican-2.wav" WAVE
 TRACK 03 AUDIO
   PREGAP 00:01:00
   INDEX 01 00:00:00
FILE "soundtrack-04-turrican-3.wav" WAVE
 TRACK 04 AUDIO
   PREGAP 00:01:00
   INDEX 01 00:00:00